<svg xmlns="http://www.w3.org/2000/svg" width="320" height="160" viewBox="0 0 320 160" fill="none" stroke-linecap="round" stroke-linejoin="round"><rect x="12" y="16" width="150" height="128" rx="8" fill="#0f172a" fill-opacity=".05" stroke="#0f172a" stroke-opacity=".28"/><circle cx="24" cy="28" r="1.8" fill="#0f172a" fill-opacity=".3"/><circle cx="31" cy="28" r="1.8" fill="#0f172a" fill-opacity=".3"/><circle cx="38" cy="28" r="1.8" fill="#0f172a" fill-opacity=".3"/><rect x="24" y="40" width="126" height="46" rx="6" fill="#0f172a" fill-opacity="0.08"/><path d="M36 78 l14 -14 10 10 8 -8 14 12" stroke="#0f172a" stroke-opacity=".35" stroke-width="1.3"/><rect x="108" y="46" width="36" height="17" rx="8.5" fill="#5b7fc4"/><text x="126" y="58.2" font-family="ui-sans-serif, system-ui, -apple-system, 'Segoe UI', Roboto, Helvetica, Arial, sans-serif" font-size="10.5" font-weight="600" fill="#ffffff" text-anchor="middle">alt</text><rect x="24" y="98" width="110" height="3" rx="1.5" fill="#0f172a" fill-opacity="0.18"/><rect x="24" y="108" width="90" height="3" rx="1.5" fill="#0f172a" fill-opacity="0.18"/><rect x="24" y="122" width="58" height="13" rx="6.5" fill="#5b7fc4" fill-opacity=".85"/><text x="182" y="28" font-family="ui-sans-serif, system-ui, -apple-system, 'Segoe UI', Roboto, Helvetica, Arial, sans-serif" font-size="11" font-weight="500" fill="#566372" text-anchor="start">Checks</text><circle cx="190" cy="52" r="7" fill="#5b7fc4"/><path d="M187.06 52.2l2.1 2.1 4.06 -4.34" stroke="#ffffff" stroke-width="1.68"/><text x="205" y="56.2" font-family="ui-sans-serif, system-ui, -apple-system, 'Segoe UI', Roboto, Helvetica, Arial, sans-serif" font-size="12" font-weight="500" fill="#0f172a" text-anchor="start">Alt text</text><circle cx="190" cy="80" r="7" fill="#5b7fc4"/><path d="M187.06 80.2l2.1 2.1 4.06 -4.34" stroke="#ffffff" stroke-width="1.68"/><text x="205" y="84.2" font-family="ui-sans-serif, system-ui, -apple-system, 'Segoe UI', Roboto, Helvetica, Arial, sans-serif" font-size="12" font-weight="500" fill="#0f172a" text-anchor="start">Contrast</text><circle cx="190" cy="108" r="7" fill="#5b7fc4"/><path d="M187.06 108.2l2.1 2.1 4.06 -4.34" stroke="#ffffff" stroke-width="1.68"/><text x="205" y="112.2" font-family="ui-sans-serif, system-ui, -apple-system, 'Segoe UI', Roboto, Helvetica, Arial, sans-serif" font-size="12" font-weight="500" fill="#0f172a" text-anchor="start">Keyboard</text><circle cx="190" cy="136" r="7" fill="#c2620f"/><path d="M190 132.85v3.5" stroke="#ffffff" stroke-width="1.82"/><circle cx="190" cy="139.15" r="0.91" fill="#ffffff"/><text x="205" y="140.2" font-family="ui-sans-serif, system-ui, -apple-system, 'Segoe UI', Roboto, Helvetica, Arial, sans-serif" font-size="12" font-weight="600" fill="#c2620f" text-anchor="start">Captions</text></svg>
