<svg xmlns="http://www.w3.org/2000/svg" width="240" height="120" viewBox="0 0 240 120" fill="none" stroke-linecap="round" stroke-linejoin="round"><rect x="19" y="11" width="204" height="104" rx="8" fill="#0f172a" opacity=".06"/><rect x="18" y="8" width="204" height="104" rx="8" fill="#ffffff" stroke="#cbd5e1"/><rect x="30" y="20" width="84" height="36" rx="6" fill="#f1f5f9"/><rect x="126" y="20" width="84" height="36" rx="6" fill="#f1f5f9"/><rect x="30" y="64" width="84" height="36" rx="6" fill="#f1f5f9"/><rect x="126" y="64" width="84" height="36" rx="6" fill="#f1f5f9"/><circle cx="44" cy="34" r="5" fill="none" stroke="#64748b" stroke-width="1.5"/><path d="M47.5 37.5l3 3" stroke="#64748b" stroke-width="1.5"/><rect x="58" y="31.5" width="44" height="5" rx="2.5" fill="#e2e8f0"/><rect x="40" y="46" width="60" height="5" rx="2.5" fill="#5b7fc4"/><circle cx="140" cy="34" r="6" fill="#0f172a"/><circle cx="150" cy="34" r="6" fill="#ffffff" stroke="#cbd5e1"/><circle cx="198" cy="34" r="5" fill="#d6eae4"/><path d="M195.9 34l1.5 1.5 2.75-3" stroke="#047857" stroke-width="1.6" fill="none"/><rect x="136" y="46" width="56" height="5" rx="2.5" fill="#e2e8f0"/><path d="M40 88h10l4-8 6 14 4-6h36" stroke="#5b7fc4" stroke-width="1.6" fill="none"/><circle cx="102" cy="76" r="5" fill="#d6eae4"/><path d="M99.9 76l1.5 1.5 2.75-3" stroke="#047857" stroke-width="1.6" fill="none"/><rect x="136" y="74" width="48" height="6" rx="3" fill="#0f172a"/><rect x="136" y="85" width="64" height="5" rx="2.5" fill="#e2e8f0"/><rect x="136" y="93" width="40" height="5" rx="2.5" fill="#e2e8f0"/></svg>