<svg xmlns="http://www.w3.org/2000/svg" width="320" height="160" viewBox="0 0 320 160" fill="none" stroke-linecap="round" stroke-linejoin="round"><rect x="26" y="16" width="130" height="58" rx="9" fill="#0f172a" fill-opacity=".05" stroke="#0f172a" stroke-opacity=".28"/><text x="40" y="41" font-family="ui-sans-serif, system-ui, -apple-system, 'Segoe UI', Roboto, Helvetica, Arial, sans-serif" font-size="12.5" font-weight="600" fill="#0f172a" text-anchor="start">SEO &amp; GEO</text><rect x="40" y="55" width="80" height="3" rx="1.5" fill="#0f172a" fill-opacity="0.18"/><circle cx="142" cy="31" r="7" fill="#5b7fc4"/><path d="M139.06 31.2l2.1 2.1 4.06 -4.34" stroke="#ffffff" stroke-width="1.68"/><rect x="164" y="16" width="130" height="58" rx="9" fill="#0f172a" fill-opacity=".05" stroke="#0f172a" stroke-opacity=".28"/><text x="178" y="41" font-family="ui-sans-serif, system-ui, -apple-system, 'Segoe UI', Roboto, Helvetica, Arial, sans-serif" font-size="12.5" font-weight="600" fill="#0f172a" text-anchor="start">Accessibility</text><rect x="178" y="55" width="80" height="3" rx="1.5" fill="#0f172a" fill-opacity="0.18"/><circle cx="280" cy="31" r="7" fill="#5b7fc4"/><path d="M277.06 31.2l2.1 2.1 4.06 -4.34" stroke="#ffffff" stroke-width="1.68"/><rect x="26" y="86" width="130" height="58" rx="9" fill="#0f172a" fill-opacity=".05" stroke="#0f172a" stroke-opacity=".28"/><text x="40" y="111" font-family="ui-sans-serif, system-ui, -apple-system, 'Segoe UI', Roboto, Helvetica, Arial, sans-serif" font-size="12.5" font-weight="600" fill="#0f172a" text-anchor="start">Maintenance</text><rect x="40" y="125" width="80" height="3" rx="1.5" fill="#0f172a" fill-opacity="0.18"/><circle cx="142" cy="101" r="7" fill="#5b7fc4"/><path d="M139.06 101.2l2.1 2.1 4.06 -4.34" stroke="#ffffff" stroke-width="1.68"/><rect x="164" y="86" width="130" height="58" rx="9" fill="#0f172a" fill-opacity=".05" stroke="#0f172a" stroke-opacity=".28"/><text x="178" y="111" font-family="ui-sans-serif, system-ui, -apple-system, 'Segoe UI', Roboto, Helvetica, Arial, sans-serif" font-size="12.5" font-weight="600" fill="#0f172a" text-anchor="start">Content</text><rect x="178" y="125" width="80" height="3" rx="1.5" fill="#0f172a" fill-opacity="0.18"/><circle cx="280" cy="101" r="7" fill="#5b7fc4"/><path d="M277.06 101.2l2.1 2.1 4.06 -4.34" stroke="#ffffff" stroke-width="1.68"/></svg>
