<svg xmlns="http://www.w3.org/2000/svg" width="320" height="160" viewBox="0 0 320 160" fill="none" stroke-linecap="round" stroke-linejoin="round"><rect x="30" y="10" width="176" height="140" rx="8" fill="#f1f5f9" fill-opacity=".05" stroke="#f1f5f9" stroke-opacity=".28"/><text x="44" y="30" font-family="ui-sans-serif, system-ui, -apple-system, 'Segoe UI', Roboto, Helvetica, Arial, sans-serif" font-size="11" font-weight="500" fill="#94a3b8" text-anchor="start">Blog post</text><rect x="44" y="40" width="126" height="6" rx="3" fill="#f1f5f9" fill-opacity="0.7"/><circle cx="52" cy="62" r="7" fill="#7ea0e0"/><text x="52" y="65.8" font-family="ui-sans-serif, system-ui, -apple-system, 'Segoe UI', Roboto, Helvetica, Arial, sans-serif" font-size="10.5" font-weight="700" fill="#111827" text-anchor="middle">?</text><rect x="66" y="60.25" width="112" height="4.5" rx="2.25" fill="#7ea0e0"/><rect x="44" y="78" width="144" height="3" rx="1.5" fill="#f1f5f9" fill-opacity="0.18"/><rect x="44" y="88" width="130" height="3" rx="1.5" fill="#f1f5f9" fill-opacity="0.18"/><rect x="44" y="98" width="138" height="3" rx="1.5" fill="#f1f5f9" fill-opacity="0.18"/><circle cx="52" cy="118" r="7" fill="#7ea0e0"/><text x="52" y="121.8" font-family="ui-sans-serif, system-ui, -apple-system, 'Segoe UI', Roboto, Helvetica, Arial, sans-serif" font-size="10.5" font-weight="700" fill="#111827" text-anchor="middle">?</text><rect x="66" y="116.25" width="96" height="4.5" rx="2.25" fill="#7ea0e0"/><rect x="44" y="134" width="128" height="3" rx="1.5" fill="#f1f5f9" fill-opacity="0.18"/><rect x="216" y="18" width="94" height="18" rx="9" stroke="#f1f5f9" stroke-opacity=".35"/><text x="263" y="30.7" font-family="ui-sans-serif, system-ui, -apple-system, 'Segoe UI', Roboto, Helvetica, Arial, sans-serif" font-size="10.5" font-weight="500" fill="#94a3b8" text-anchor="middle">Every month</text><path d="M280 58 l12 12 -42 42 -15 4 4 -15z" fill="#f1f5f9" fill-opacity=".12" stroke="#f1f5f9" stroke-opacity=".45" stroke-width="1.2"/><path d="M239 101 l11 11" stroke="#f1f5f9" stroke-opacity=".45" stroke-width="1.2"/></svg>
