<svg xmlns="http://www.w3.org/2000/svg" width="320" height="160" viewBox="0 0 320 160" fill="none" stroke-linecap="round" stroke-linejoin="round"><text x="24" y="22" font-family="ui-sans-serif, system-ui, -apple-system, 'Segoe UI', Roboto, Helvetica, Arial, sans-serif" font-size="9.5" font-weight="500" fill="#566372" text-anchor="start">Pick only what you need</text><rect x="24" y="34" width="80" height="46" rx="8" fill="#5b7fc4" fill-opacity=".12" stroke="#5b7fc4" stroke-width="1.4"/><text x="64" y="61" font-family="ui-sans-serif, system-ui, -apple-system, 'Segoe UI', Roboto, Helvetica, Arial, sans-serif" font-size="10" font-weight="600" fill="#5b7fc4" text-anchor="middle">Website</text><circle cx="104" cy="34" r="6" fill="#5b7fc4"/><path d="M101.48 34.2l1.7999999999999998 1.7999999999999998 3.4799999999999995 -3.7199999999999998" stroke="#ffffff" stroke-width="1.44"/><rect x="120" y="34" width="80" height="46" rx="8" fill="#5b7fc4" fill-opacity=".12" stroke="#5b7fc4" stroke-width="1.4"/><text x="160" y="61" font-family="ui-sans-serif, system-ui, -apple-system, 'Segoe UI', Roboto, Helvetica, Arial, sans-serif" font-size="10" font-weight="600" fill="#5b7fc4" text-anchor="middle">Local</text><circle cx="200" cy="34" r="6" fill="#5b7fc4"/><path d="M197.48 34.2l1.7999999999999998 1.7999999999999998 3.4799999999999995 -3.7199999999999998" stroke="#ffffff" stroke-width="1.44"/><rect x="216" y="34" width="80" height="46" rx="8" stroke="#0f172a" stroke-opacity=".3" stroke-dasharray="4 4"/><text x="256" y="61" font-family="ui-sans-serif, system-ui, -apple-system, 'Segoe UI', Roboto, Helvetica, Arial, sans-serif" font-size="10" font-weight="500" fill="#566372" text-anchor="middle">Content</text><rect x="24" y="92" width="80" height="46" rx="8" stroke="#0f172a" stroke-opacity=".3" stroke-dasharray="4 4"/><text x="64" y="119" font-family="ui-sans-serif, system-ui, -apple-system, 'Segoe UI', Roboto, Helvetica, Arial, sans-serif" font-size="10" font-weight="500" fill="#566372" text-anchor="middle">Speed</text><rect x="120" y="92" width="80" height="46" rx="8" stroke="#0f172a" stroke-opacity=".3" stroke-dasharray="4 4"/><text x="160" y="119" font-family="ui-sans-serif, system-ui, -apple-system, 'Segoe UI', Roboto, Helvetica, Arial, sans-serif" font-size="10" font-weight="500" fill="#566372" text-anchor="middle">Store</text><rect x="216" y="92" width="80" height="46" rx="8" fill="#5b7fc4" fill-opacity=".12" stroke="#5b7fc4" stroke-width="1.4"/><text x="256" y="119" font-family="ui-sans-serif, system-ui, -apple-system, 'Segoe UI', Roboto, Helvetica, Arial, sans-serif" font-size="10" font-weight="600" fill="#5b7fc4" text-anchor="middle">Reports</text><circle cx="296" cy="92" r="6" fill="#5b7fc4"/><path d="M293.48 92.2l1.7999999999999998 1.7999999999999998 3.4799999999999995 -3.7199999999999998" stroke="#ffffff" stroke-width="1.44"/><path d="M188 70 l0 20 5 -5 4 9 4 -2 -4 -9 7 0z" fill="#0f172a" fill-opacity=".85" stroke="#ffffff" stroke-width="1"/></svg>
