<svg xmlns="http://www.w3.org/2000/svg" width="320" height="160" viewBox="0 0 320 160" fill="none" stroke-linecap="round" stroke-linejoin="round"><rect x="18" y="46" width="118" height="68" rx="8" fill="#f1f5f9" fill-opacity=".05" stroke="#f1f5f9" stroke-opacity=".28"/><rect x="30" y="60" width="14" height="14" rx="4" fill="#7ea0e0"/><text x="52" y="71" font-family="ui-sans-serif, system-ui, -apple-system, 'Segoe UI', Roboto, Helvetica, Arial, sans-serif" font-size="10" font-weight="600" fill="#f1f5f9" text-anchor="start">Your business</text><rect x="30" y="86" width="92" height="3" rx="1.5" fill="#f1f5f9" fill-opacity="0.18"/><rect x="30" y="96" width="70" height="3" rx="1.5" fill="#f1f5f9" fill-opacity="0.18"/><path d="M138 80 C 160 80, 160 34, 180 34" stroke="#f1f5f9" stroke-opacity="0.35" stroke-width="1.2" stroke-dasharray="3 4"/><path d="M138 80 C 160 80, 160 80, 180 80" stroke="#f1f5f9" stroke-opacity="0.35" stroke-width="1.2" stroke-dasharray="3 4"/><path d="M138 80 C 160 80, 160 126, 180 126" stroke="#f1f5f9" stroke-opacity="0.35" stroke-width="1.2" stroke-dasharray="3 4"/><rect x="182" y="21" width="120" height="26" rx="13" fill="#f1f5f9" fill-opacity=".05" stroke="#f1f5f9" stroke-opacity=".28"/><text x="196" y="37.5" font-family="ui-sans-serif, system-ui, -apple-system, 'Segoe UI', Roboto, Helvetica, Arial, sans-serif" font-size="9.8" font-weight="500" fill="#f1f5f9" text-anchor="start">ChatGPT</text><circle cx="288" cy="34" r="6.5" fill="#7ea0e0"/><path d="M285.27 34.2l1.95 1.95 3.7699999999999996 -4.03" stroke="#111827" stroke-width="1.56"/><rect x="182" y="67" width="120" height="26" rx="13" fill="#f1f5f9" fill-opacity=".05" stroke="#f1f5f9" stroke-opacity=".28"/><text x="196" y="83.5" font-family="ui-sans-serif, system-ui, -apple-system, 'Segoe UI', Roboto, Helvetica, Arial, sans-serif" font-size="9.8" font-weight="500" fill="#f1f5f9" text-anchor="start">Gemini</text><circle cx="288" cy="80" r="6.5" fill="#7ea0e0"/><path d="M285.27 80.2l1.95 1.95 3.7699999999999996 -4.03" stroke="#111827" stroke-width="1.56"/><rect x="182" y="113" width="120" height="26" rx="13" fill="#f1f5f9" fill-opacity=".05" stroke="#f1f5f9" stroke-opacity=".28"/><text x="196" y="129.5" font-family="ui-sans-serif, system-ui, -apple-system, 'Segoe UI', Roboto, Helvetica, Arial, sans-serif" font-size="9.8" font-weight="500" fill="#f1f5f9" text-anchor="start">Perplexity</text><circle cx="288" cy="126" r="6.5" fill="#7ea0e0"/><path d="M285.27 126.2l1.95 1.95 3.7699999999999996 -4.03" stroke="#111827" stroke-width="1.56"/></svg>
