<svg xmlns="http://www.w3.org/2000/svg" width="240" height="120" viewBox="0 0 240 120" fill="none" stroke-linecap="round" stroke-linejoin="round"><rect x="23" y="17" width="52" height="22" rx="6" fill="#0f172a" opacity=".06"/><rect x="22" y="14" width="52" height="22" rx="6" fill="#ffffff" stroke="#cbd5e1"/><rect x="23" y="53" width="52" height="22" rx="6" fill="#0f172a" opacity=".06"/><rect x="22" y="50" width="52" height="22" rx="6" fill="#ffffff" stroke="#cbd5e1"/><rect x="23" y="89" width="52" height="22" rx="6" fill="#0f172a" opacity=".06"/><rect x="22" y="86" width="52" height="22" rx="6" fill="#ffffff" stroke="#cbd5e1"/><path d="M32 21l10 7 10-7M32 21h20v14H32z" stroke="#64748b" stroke-width="1.4" fill="none"/><rect x="58" y="22.5" width="10" height="5" rx="2.5" fill="#e2e8f0"/><path d="M32 57h16a3 3 0 013 3v6a3 3 0 01-3 3h-9l-5 4v-4a3 3 0 01-2-3v-6a3 3 0 013-3z" fill="none" stroke="#64748b" stroke-width="1.4"/><rect x="56" y="58.5" width="12" height="5" rx="2.5" fill="#e2e8f0"/><path d="M32 95l14-5v14l-14-5z" fill="#64748b"/><rect x="52" y="94.5" width="16" height="5" rx="2.5" fill="#e2e8f0"/><path d="M76 25C110 25 110 56 140 58M76 61h64M76 97C110 97 110 66 140 64" stroke="#5b7fc4" stroke-width="1.5" fill="none" stroke-dasharray="3 4"/><rect x="143" y="33" width="78" height="62" rx="8" fill="#0f172a" opacity=".06"/><rect x="142" y="30" width="78" height="62" rx="8" fill="#ffffff" stroke="#cbd5e1"/><path d="M142 44h78" stroke="#cbd5e1"/><circle cx="151" cy="37" r="2" fill="#cbd5e1"/><circle cx="158" cy="37" r="2" fill="#cbd5e1"/><circle cx="165" cy="37" r="2" fill="#cbd5e1"/><rect x="152" y="54" width="46" height="6" rx="3" fill="#0f172a"/><rect x="152" y="66" width="56" height="5" rx="2.5" fill="#e2e8f0"/><rect x="152" y="75" width="40" height="5" rx="2.5" fill="#e2e8f0"/></svg>